<?xml version="1.0" encoding="UTF-8"?>
<svg id="Layer_1" data-name="Layer 1" xmlns="http://www.w3.org/2000/svg" viewBox="0 0 960 960">
  <defs>
    <style>
      .cls-1 {
        fill: #654bf6;
      }

      .cls-1, .cls-2, .cls-3 {
        stroke-width: 0px;
      }

      .cls-2 {
        fill: rgba(101, 75, 246, .5);
      }

      .cls-3 {
        fill: #131316;
        fill-rule: evenodd;
      }
    </style>
  </defs>
  <circle class="cls-1" cx="190.83" cy="480.04" r="37.06" transform="translate(-2.96 1.19) rotate(-.35)"/>
  <path class="cls-1" d="M257.61,567.8c3.15,3.15,2.84,8.37-.87,10.86-18.85,12.63-41.53,19.99-65.92,19.99s-47.07-7.36-65.92-19.99c-3.71-2.48-4.02-7.7-.87-10.86l27.09-27.09c2.45-2.45,6.25-2.83,9.33-1.26,9.11,4.67,19.44,7.3,30.38,7.3s21.27-2.63,30.38-7.3c3.08-1.58,6.88-1.19,9.33,1.26l27.09,27.09Z"/>
  <path class="cls-2" d="M256.76,381.43c3.71,2.48,4.02,7.7.87,10.86l-27.09,27.09c-2.45,2.45-6.25,2.83-9.33,1.26-9.11-4.67-19.44-7.3-30.38-7.3-36.85,0-66.72,29.87-66.72,66.72,0,10.94,2.63,21.27,7.3,30.38,1.58,3.08,1.19,6.88-1.26,9.33l-27.09,27.09c-3.15,3.15-8.37,2.84-10.86-.87-12.63-18.85-19.99-41.53-19.99-65.92,0-65.5,53.1-118.61,118.61-118.61,24.4,0,47.07,7.36,65.92,19.99Z"/>
  <path class="cls-3" d="M459.55,385.53c0-1.02.83-1.85,1.85-1.85h27.8c1.02,0,1.85.83,1.85,1.85v189.03c0,1.02-.83,1.85-1.85,1.85h-27.8c-1.02,0-1.85-.83-1.85-1.85v-189.03ZM420.32,536.32c-.74-.64-1.84-.59-2.55.08-4.33,4.09-9.41,7.36-14.97,9.64-6.1,2.51-12.66,3.77-19.27,3.71-5.59.16-11.15-.79-16.34-2.81-5.19-2.02-9.91-5.05-13.86-8.92-7.17-7.32-11.3-17.78-11.3-30.25,0-24.95,16.6-42.02,41.5-42.02,6.68-.09,13.3,1.26,19.38,3.96,5.52,2.45,10.47,5.95,14.57,10.29.7.74,1.87.83,2.64.16l18.77-16.24c.77-.66.86-1.82.18-2.58-14.12-15.77-36.23-23.92-57.26-23.92-42.34,0-72.37,28.56-72.37,70.59,0,20.78,7.46,38.28,20.05,50.64,12.58,12.36,30.51,19.62,51.2,19.62,25.94,0,46.81-9.95,59.05-22.71.72-.75.64-1.94-.15-2.62l-19.27-16.62ZM644.19,517.02c-.1.93-.89,1.62-1.83,1.62h-97.38c-1.18,0-2.07,1.1-1.76,2.24,4.84,17.96,19.29,28.83,39,28.83,6.65.14,13.23-1.23,19.25-4,5.61-2.58,10.59-6.31,14.6-10.94.48-.56,1.33-.64,1.9-.17l19.58,17.05c.75.65.85,1.78.21,2.54-11.82,13.94-30.97,24.08-57.25,24.08-40.43,0-70.93-28-70.93-70.53,0-20.87,7.18-38.37,19.16-50.73,6.32-6.35,13.9-11.37,22.27-14.74,8.37-3.37,17.35-5.01,26.38-4.84,40.98,0,67.48,28.82,67.48,68.61-.05,3.67-.28,7.33-.69,10.97ZM543.81,491.19c-.34,1.14.54,2.26,1.73,2.26h64.75c1.2,0,2.08-1.12,1.75-2.27-4.41-15.27-15.61-25.47-33-25.47-5.11-.16-10.2.76-14.92,2.71-4.72,1.95-8.95,4.88-12.41,8.59-3.64,4.13-6.33,8.96-7.9,14.18ZM741.22,437.44c1.03-.01,1.87.82,1.87,1.85v31.12c0,1.08-.92,1.93-1.99,1.85-3-.22-5.84-.41-7.71-.41-24.25,0-38.48,17.07-38.48,39.47v63.24c0,1.02-.83,1.85-1.85,1.85h-27.8c-1.02,0-1.85-.83-1.85-1.85v-133.34c0-1.02.83-1.85,1.85-1.85h27.8c1.02,0,1.85.83,1.85,1.85v18.72c0,.11.08.19.19.19.06,0,.12-.03.15-.08,10.87-14.51,26.91-22.58,43.85-22.58l2.12-.02ZM816.52,518.95c.11-.12.27-.19.44-.19.21,0,.4.11.51.28l35.15,56.49c.34.54.93.87,1.57.87h31.6c1.45,0,2.34-1.59,1.58-2.83l-48.22-77.8c-.44-.7-.35-1.61.2-2.22l46.46-51.26c1.08-1.19.23-3.1-1.37-3.1h-32.97c-.52,0-1.01.22-1.37.6l-53.75,58.6c-1.14,1.25-3.22.44-3.22-1.25v-111.61c0-1.02-.83-1.85-1.85-1.85h-27.8c-1.02,0-1.85.83-1.85,1.85v189.03c0,1.02.83,1.85,1.85,1.85h27.8c1.02,0,1.85-.83,1.85-1.85v-29.75c0-.47.18-.92.5-1.26l22.89-24.6Z"/>
</svg>