<?xml version="1.0" encoding="UTF-8"?>
<svg version="1.1" xmlns="http://www.w3.org/2000/svg" width="500" height="115">
<path d="M0 0 C165 0 330 0 500 0 C500 37.95 500 75.9 500 115 C335 115 170 115 0 115 C0 77.05 0 39.1 0 0 Z " fill="#1F2937" transform="translate(0,0)"/>
<path d="M0 0 C13.8794499 -0.52623507 25.67469109 4.43966131 36.234375 13.25 C45.70754118 22.11912293 50.98840869 33.44118696 51.50952148 46.33691406 C51.75428302 60.92022211 46.93912664 73.28887349 36.859375 83.9375 C26.96563824 93.33322988 16.2316314 97.74104837 2.671875 97.5625 C1.35606445 97.57990234 1.35606445 97.57990234 0.01367188 97.59765625 C-13.22144728 97.53913693 -23.81670947 92.27540166 -33.328125 83.1875 C-40.890625 75.20572382 -40.890625 75.20572382 -40.890625 70.1875 C-38.910625 70.1875 -36.930625 70.1875 -34.890625 70.1875 C-34.97170302 66.29082753 -35.08453112 62.39569696 -35.203125 58.5 C-35.23696289 56.84581055 -35.23696289 56.84581055 -35.27148438 55.15820312 C-35.3246582 53.5581543 -35.3246582 53.5581543 -35.37890625 51.92578125 C-35.40509033 50.94649658 -35.43127441 49.96721191 -35.45825195 48.95825195 C-35.96446064 45.71434321 -36.94533396 43.81815789 -38.890625 41.1875 C-41.95743299 39.36120206 -41.95743299 39.36120206 -44.890625 38.1875 C-44.46890531 28.69880703 -38.76165578 19.56554203 -31.890625 13.1875 C-22.4895997 5.4038554 -12.17384349 0.78965471 0 0 Z " fill="#8B52FD" transform="translate(343.890625,10.8125)"/>
<path d="M0 0 C5.61 0 11.22 0 17 0 C17.63228516 2.65482422 17.63228516 2.65482422 18.27734375 5.36328125 C18.83065935 7.67970418 19.38404858 9.99610952 19.9375 12.3125 C20.35418945 14.06336914 20.35418945 14.06336914 20.77929688 15.84960938 C21.04677734 16.96787109 21.31425781 18.08613281 21.58984375 19.23828125 C21.83597412 20.26993408 22.08210449 21.30158691 22.33569336 22.36450195 C22.98557108 25.08131843 22.98557108 25.08131843 24 28 C24.176521 27.18732666 24.35304199 26.37465332 24.53491211 25.53735352 C25.33194783 21.87822307 26.13464521 18.22035787 26.9375 14.5625 C27.21529297 13.28310547 27.49308594 12.00371094 27.77929688 10.68554688 C28.04677734 9.47060547 28.31425781 8.25566406 28.58984375 7.00390625 C28.83597412 5.87799072 29.08210449 4.7520752 29.33569336 3.59204102 C30 1 30 1 31 0 C36.28 0 41.56 0 47 0 C47 14.19 47 28.38 47 43 C43.7 43 40.4 43 37 43 C36.67 33.1 36.34 23.2 36 13 C34.06868067 21.75022389 34.06868067 21.75022389 32.14086914 30.5012207 C31.77916626 32.13450317 31.77916626 32.13450317 31.41015625 33.80078125 C31.16402588 34.91622314 30.91789551 36.03166504 30.66430664 37.1809082 C30 40 30 40 29 43 C25.7 43 22.4 43 19 43 C16.07361418 34.0574403 13.86236753 25.21871928 12 16 C11.67 24.91 11.34 33.82 11 43 C7.37 43 3.74 43 0 43 C0 28.81 0 14.62 0 0 Z " fill="#EEC72C" transform="translate(228,38)"/>
<path d="M0 0 C3.3 0 6.6 0 10 0 C10.33 6.93 10.66 13.86 11 21 C12.8871875 18.525 12.8871875 18.525 14.8125 16 C19.0523499 11.20653912 19.0523499 11.20653912 23.046875 10.3359375 C25.761393 10.37109965 28.32447305 10.54991135 31 11 C29.46356148 14.68069887 27.21849055 16.98775204 24.375 19.75 C23.55773437 20.54921875 22.74046875 21.3484375 21.8984375 22.171875 C21.27195313 22.77515625 20.64546875 23.3784375 20 24 C21.52606082 28.6658871 24.09914189 31.97827211 27.125 35.75 C32 41.88739669 32 41.88739669 32 43 C28.16497537 43.63447099 24.81419427 43.83701766 21 43 C17.65175842 40.09104771 15.34953916 36.73924153 13 33 C12.34 32.01 11.68 31.02 11 30 C10.67 34.29 10.34 38.58 10 43 C6.7 43 3.4 43 0 43 C0 28.81 0 14.62 0 0 Z " fill="#EEC62C" transform="translate(193,38)"/>
<path d="M0 0 C5.37842846 1.85800256 8.46081756 4.92163513 11 10 C11 12.64 11 15.28 11 18 C3.74 18 -3.52 18 -11 18 C-10.01 19.65 -9.02 21.3 -8 23 C-4.45769191 23.58342353 -4.45769191 23.58342353 -1 23 C-0.34 22.34 0.32 21.68 1 21 C3.3828125 20.8046875 3.3828125 20.8046875 6.125 20.875 C7.03507812 20.89304687 7.94515625 20.91109375 8.8828125 20.9296875 C9.58148438 20.95289062 10.28015625 20.97609375 11 21 C9.30385988 25.59743243 7.67531077 29.0956973 3.25 31.5 C-2.11790421 33.74494135 -6.63238685 33.83562817 -12.1875 31.875 C-16.42051121 29.05299253 -19.35909664 25.92271008 -21 21 C-21.60277077 15.0186593 -21.02557945 10.32084663 -18 5 C-12.20457173 -0.37137255 -7.69045801 -0.5982676 0 0 Z " fill="#F6CB33" transform="translate(357,49)"/>
<path d="M0 0 C4.14636673 2.03681172 6.33652385 3.72087056 8 8 C8.22705078 10.65722656 8.22705078 10.65722656 8.1953125 13.640625 C8.18886719 14.71054687 8.18242187 15.78046875 8.17578125 16.8828125 C8.15902344 17.99398437 8.14226562 19.10515625 8.125 20.25 C8.11597656 21.37664062 8.10695313 22.50328125 8.09765625 23.6640625 C8.07410658 26.44292365 8.0412168 29.2213539 8 32 C5.03 32 2.06 32 -1 32 C-1.33 31.34 -1.66 30.68 -2 30 C-2.495 30.495 -2.99 30.99 -3.5 31.5 C-6.9543309 33.57259854 -10.11520736 33.57152019 -14 33 C-16.9091534 31.73515069 -18.46015566 30.74549933 -20.3125 28.1875 C-21.60789244 24.06579679 -21.60757035 21.18752386 -19.625 17.3125 C-14.69844615 12.97244066 -8.45790327 11.7805006 -2 12 C-2.33 10.68 -2.66 9.36 -3 8 C-5.41619823 7.74969023 -5.41619823 7.74969023 -8 8 C-8.99 9.485 -8.99 9.485 -10 11 C-12.3828125 11.29296875 -12.3828125 11.29296875 -15.125 11.1875 C-16.03507812 11.16042969 -16.94515625 11.13335937 -17.8828125 11.10546875 C-18.58148438 11.07066406 -19.28015625 11.03585938 -20 11 C-18.75892597 6.03570389 -17.23893588 3.86128172 -13 1 C-9.05322303 -0.97338848 -4.30160477 -0.44290148 0 0 Z " fill="#F3CA2D" transform="translate(301,49)"/>
<path d="M0 0 C4.14636673 2.03681172 6.33652385 3.72087056 8 8 C8.22705078 10.65722656 8.22705078 10.65722656 8.1953125 13.640625 C8.18886719 14.71054687 8.18242187 15.78046875 8.17578125 16.8828125 C8.15902344 17.99398437 8.14226562 19.10515625 8.125 20.25 C8.11597656 21.37664062 8.10695312 22.50328125 8.09765625 23.6640625 C8.07410658 26.44292365 8.0412168 29.2213539 8 32 C5.03 32 2.06 32 -1 32 C-1.33 31.34 -1.66 30.68 -2 30 C-2.495 30.495 -2.99 30.99 -3.5 31.5 C-6.9543309 33.57259854 -10.11520736 33.57152019 -14 33 C-16.9091534 31.73515069 -18.46015566 30.74549933 -20.3125 28.1875 C-21.60789244 24.06579679 -21.60757035 21.18752386 -19.625 17.3125 C-14.69844615 12.97244066 -8.45790327 11.7805006 -2 12 C-2.33 10.68 -2.66 9.36 -3 8 C-5.41619823 7.74969023 -5.41619823 7.74969023 -8 8 C-8.99 9.485 -8.99 9.485 -10 11 C-12.3828125 11.29296875 -12.3828125 11.29296875 -15.125 11.1875 C-16.03507813 11.16042969 -16.94515625 11.13335937 -17.8828125 11.10546875 C-18.58148438 11.07066406 -19.28015625 11.03585938 -20 11 C-18.75892597 6.03570389 -17.23893588 3.86128172 -13 1 C-9.05322303 -0.97338848 -4.30160477 -0.44290148 0 0 Z " fill="#F2CA2C" transform="translate(147,49)"/>
<path d="M0 0 C11.55 0 23.1 0 35 0 C35 3.3 35 6.6 35 10 C31.04 10 27.08 10 23 10 C23 20.89 23 31.78 23 43 C19.7 43 16.4 43 13 43 C13 31.78 13 20.56 13 9 C8.71 9 4.42 9 0 9 C0 6.03 0 3.06 0 0 Z " fill="#EDC62C" transform="translate(89,38)"/>
<path d="M0 0 C3.98655319 1.95830683 6.75696948 4.13700299 9 8 C9 8.99 9 9.98 9 11 C6.03 11 3.06 11 0 11 C-0.33 10.01 -0.66 9.02 -1 8 C-3.31 8 -5.62 8 -8 8 C-8.33 8.99 -8.66 9.98 -9 11 C-8.19175781 11.10957031 -7.38351563 11.21914063 -6.55078125 11.33203125 C-5.48214844 11.49058594 -4.41351563 11.64914063 -3.3125 11.8125 C-1.72888672 12.03873047 -1.72888672 12.03873047 -0.11328125 12.26953125 C3.13371358 13.0313732 5.2975728 14.06691244 8 16 C9.74604774 19.49209548 9.7087477 23.20032483 9 27 C6.65284999 30.1716236 3.72796098 31.75734634 0 33 C-6.55164825 33.77451656 -10.6477466 32.85362245 -16 29 C-18.91240576 25.99364566 -19 25.37717077 -19 21 C-17.54257537 20.91903197 -16.08387193 20.86082226 -14.625 20.8125 C-13.81289062 20.77769531 -13.00078125 20.74289063 -12.1640625 20.70703125 C-11.44992188 20.80371094 -10.73578125 20.90039062 -10 21 C-9.34 21.99 -8.68 22.98 -8 24 C-4.41642759 24.25015873 -4.41642759 24.25015873 -1 24 C-0.67 23.01 -0.34 22.02 0 21 C-0.88042969 20.84144531 -1.76085937 20.68289062 -2.66796875 20.51953125 C-12.03381643 18.63804576 -12.03381643 18.63804576 -16.3125 15.8125 C-18.22009454 12.63317576 -18.81263143 10.61144863 -18.52734375 6.9375 C-17.7849662 4.20994989 -16.41278979 2.46553092 -14.109375 0.84765625 C-9.54167254 -0.98788344 -4.7959841 -0.71709502 0 0 Z " fill="#F0C92C" transform="translate(179,49)"/>
<path d="M0 0 C3.3 0 6.6 0 10 0 C10 3.63 10 7.26 10 11 C11.65 11 13.3 11 15 11 C15 13.64 15 16.28 15 19 C13.35 19 11.7 19 10 19 C10 24.28 10 29.56 10 35 C11.65 35 13.3 35 15 35 C15 37.64 15 40.28 15 43 C13.22992286 43.08114106 11.45877902 43.13925505 9.6875 43.1875 C8.70136719 43.22230469 7.71523438 43.25710937 6.69921875 43.29296875 C4 43 4 43 2.20703125 41.61328125 C0.11844909 38.82174587 -0.12052023 37.07803441 -0.09765625 33.6484375 C-0.09443359 32.79765625 -0.09121094 31.946875 -0.08789062 31.0703125 C-0.07951172 30.18085937 -0.07113281 29.29140625 -0.0625 28.375 C-0.05798828 27.4778125 -0.05347656 26.580625 -0.04882812 25.65625 C-0.03702591 23.43743352 -0.02056155 21.21874982 0 19 C-1.32 19 -2.64 19 -4 19 C-4 16.36 -4 13.72 -4 11 C-2.68 11 -1.36 11 0 11 C0 7.37 0 3.74 0 0 Z " fill="#F4C937" transform="translate(317,38)"/>
<path d="M0 0 C-0.75 4.75 -0.75 4.75 -3 7 C-6.625 7.125 -6.625 7.125 -10 7 C-9.67 5.35 -9.34 3.7 -9 2 C-3.375 0 -3.375 0 0 0 Z " fill="#2E3536" transform="translate(146,67)"/>
<path d="M0 0 C-0.75 4.75 -0.75 4.75 -3 7 C-6.625 7.125 -6.625 7.125 -10 7 C-9.67 5.35 -9.34 3.7 -9 2 C-2.25 0 -2.25 0 0 0 Z " fill="#333448" transform="translate(300,67)"/>
<path d="M0 0 C2.31 0.33 4.62 0.66 7 1 C7.33 2.65 7.66 4.3 8 6 C3.545 5.01 3.545 5.01 -1 4 C-0.67 2.68 -0.34 1.36 0 0 Z " fill="#2A3136" transform="translate(171,56)"/>
<path d="M0 0 C4.08165827 -0.51020728 5.52957297 -0.31361802 9 2 C9 2.66 9 3.32 9 4 C5.04 4 1.08 4 -3 4 C-2.01 2.68 -1.02 1.36 0 0 Z " fill="#8F55F8" transform="translate(349,56)"/>
</svg>
